<svg width="16" height="16" viewBox="0 0 16 16" fill="none" xmlns="http://www.w3.org/2000/svg">
<path fill-rule="evenodd" clip-rule="evenodd" d="M1.70709 0.292891C1.31657 -0.0976303 0.683412 -0.0976303 0.292891 0.292891C-0.0976303 0.683412 -0.0976303 1.31657 0.292891 1.70709L6.5858 8L0.293017 14.2928C-0.0975039 14.6833 -0.0975039 15.3165 0.293017 15.707C0.683539 16.0975 1.3167 16.0975 1.70722 15.707L8 9.4142L14.2928 15.707C14.6833 16.0975 15.3165 16.0975 15.707 15.707C16.0975 15.3165 16.0975 14.6833 15.707 14.2928L9.4142 8L15.7071 1.70709C16.0976 1.31657 16.0976 0.683412 15.7071 0.292891C15.3166 -0.0976303 14.6834 -0.0976303 14.2929 0.292891L8 6.5858L1.70709 0.292891Z" fill="#666666"/>
</svg>
