<svg width="82" height="82" viewBox="0 0 82 82" fill="none" xmlns="http://www.w3.org/2000/svg">
<g filter="url(#filter0_ii_218_10833)">
<circle cx="40.75" cy="40.75" r="40.5" fill="#FF4133"/>
</g>
<path d="M23.2812 29.8125C25.125 31.6667 30.0563 35.0562 35.0312 33.7812" stroke="#462A05" stroke-width="2.5" stroke-linecap="round"/>
<path d="M58.6875 29.8125C56.8438 31.6667 51.9125 35.0562 46.9375 33.7812" stroke="#462A05" stroke-width="2.5" stroke-linecap="round"/>
<ellipse cx="29.75" cy="39.5938" rx="4.625" ry="5.53125" fill="#462A05"/>
<ellipse cx="28.0625" cy="37.5" rx="1.6875" ry="1.875" fill="#905E10"/>
<ellipse cx="51.5625" cy="39.5938" rx="4.625" ry="5.53125" fill="#462A05"/>
<ellipse cx="49.875" cy="37.5" rx="1.6875" ry="1.875" fill="#905E10"/>
<rect x="17.8062" y="46.75" width="46.875" height="19.75" transform="rotate(6 17.8062 46.75)" fill="black"/>
<path d="M31.5918 57.7084L29.6824 57.5077L29.3727 58.6174L30.9957 58.788L30.7148 61.4612L28.6302 61.2422L28.0209 63.3661L24.9339 63.0416L25.5273 60.916L24.0634 60.7622L23.47 62.8878L20.6853 62.5951L21.2787 60.4695L19.6875 60.3022L19.9685 57.629L22.0212 57.8447L22.3309 56.735L20.5646 56.5494L20.8456 53.8761L23.0733 54.1102L23.6425 52.0625L26.443 52.3569L25.858 54.4029L27.306 54.5551L27.8751 52.5074L31.0099 52.8368L30.4248 54.8829L31.8728 55.0351L31.5918 57.7084ZM24.8058 58.1374L26.2539 58.2896L26.5635 57.1799L25.1314 57.0293L24.8058 58.1374Z" fill="white"/>
<path d="M37.8398 61.4218C38.2853 61.4686 38.6144 61.2458 38.6546 60.8639C38.6947 60.482 38.4032 60.194 37.9736 60.1488L36.3505 59.9782C33.8841 59.719 32.7165 58.5827 32.9289 56.5618C33.1145 54.7956 34.4208 53.6941 36.7256 53.8076L36.8878 52.2641L39.6725 52.5568L39.5119 54.0844L41.676 54.3118L41.4134 56.8101L36.8307 56.3284C36.3851 56.2816 36.1163 56.5429 36.0812 56.8771C36.0227 57.434 36.2622 57.604 36.8351 57.6642L38.4422 57.8331C39.2856 57.9217 39.9547 58.1369 40.4497 58.4785C41.3937 59.1408 41.7757 60.098 41.6637 61.1641C41.4697 63.0099 40.5009 64.1147 38.4616 64.0773L38.2843 65.7641L35.4997 65.4714L35.6736 63.8165L32.9685 63.5322L33.2411 60.9385L37.8398 61.4218Z" fill="white"/>
<path d="M46.399 63.0936L46.1381 65.576L43.258 65.2733L43.5189 62.7909L46.399 63.0936ZM44.2946 53.5735L47.6203 53.9231L46.2557 62.1616L43.837 61.9073L44.2946 53.5735Z" fill="white"/>
<path d="M55.2299 55.1572C56.4568 55.2701 57.4694 55.5857 58.2676 56.1039C59.8497 57.1229 60.5677 58.7107 60.3695 60.4434C60.1771 62.2734 58.8625 63.4544 56.953 63.2537C55.9983 63.1534 55.2126 62.6686 55.1589 61.9551C54.7051 62.5992 53.9983 62.8949 53.2186 62.8129C52.1525 62.7009 51.3961 61.7848 51.5316 60.4959C51.6653 58.9172 52.8996 57.8886 54.1693 58.0542C54.9171 58.1328 55.4817 58.5783 55.5965 59.1695L55.7815 58.4811L57.6909 58.6818L57.1034 60.9046C57.0138 61.2973 57.1194 61.5176 57.4376 61.551C57.7718 61.5862 58.1729 60.9848 58.2531 60.221C58.4488 58.3592 57.1405 57.3369 55.0242 57.1145C52.6373 56.8636 50.9115 58.1301 50.7225 60.2339C50.5034 62.3184 51.8101 63.6624 54.3084 63.9249C54.8971 63.9868 55.6425 63.9365 56.5461 63.7579L57.0287 65.5944C56.1293 65.886 55.1864 65.98 54.2157 65.878C50.2854 65.4649 48.2424 63.3196 48.5903 60.0098C48.6764 59.0375 48.9928 58.1698 49.5731 57.3942C50.7612 55.7333 52.8162 54.8553 55.2299 55.1572ZM53.4963 60.4772C53.4478 60.9386 53.6865 61.2694 54.1321 61.3162C54.6413 61.3697 55.0398 60.9451 55.1017 60.3563C55.1552 59.8471 54.9115 59.5641 54.45 59.5156C53.9886 59.4671 53.5615 59.8566 53.4963 60.4772Z" fill="white"/>
<defs>
<filter id="filter0_ii_218_10833" x="-5.75" y="-5.75" width="93" height="93" filterUnits="userSpaceOnUse" color-interpolation-filters="sRGB">
<feFlood flood-opacity="0" result="BackgroundImageFix"/>
<feBlend mode="normal" in="SourceGraphic" in2="BackgroundImageFix" result="shape"/>
<feColorMatrix in="SourceAlpha" type="matrix" values="0 0 0 0 0 0 0 0 0 0 0 0 0 0 0 0 0 0 127 0" result="hardAlpha"/>
<feOffset dx="-6" dy="-6"/>
<feGaussianBlur stdDeviation="6"/>
<feComposite in2="hardAlpha" operator="arithmetic" k2="-1" k3="1"/>
<feColorMatrix type="matrix" values="0 0 0 0 0.710807 0 0 0 0 0.110533 0 0 0 0 0.0663027 0 0 0 1 0"/>
<feBlend mode="normal" in2="shape" result="effect1_innerShadow_218_10833"/>
<feColorMatrix in="SourceAlpha" type="matrix" values="0 0 0 0 0 0 0 0 0 0 0 0 0 0 0 0 0 0 127 0" result="hardAlpha"/>
<feOffset dx="6" dy="6"/>
<feGaussianBlur stdDeviation="6"/>
<feComposite in2="hardAlpha" operator="arithmetic" k2="-1" k3="1"/>
<feColorMatrix type="matrix" values="0 0 0 0 0.995573 0 0 0 0 0.503938 0 0 0 0 0.467712 0 0 0 1 0"/>
<feBlend mode="normal" in2="effect1_innerShadow_218_10833" result="effect2_innerShadow_218_10833"/>
</filter>
</defs>
</svg>
