<svg width="82" height="82" viewBox="0 0 82 82" fill="none" xmlns="http://www.w3.org/2000/svg">
<circle cx="41.25" cy="40.75" r="40.5" fill="#FF4133"/>
<path d="M23.7812 29.8125C25.625 31.6667 30.5563 35.0562 35.5312 33.7812" stroke="#462A05" stroke-width="2.5" stroke-linecap="round"/>
<path d="M59.1875 29.8125C57.3438 31.6667 52.4125 35.0562 47.4375 33.7812" stroke="#462A05" stroke-width="2.5" stroke-linecap="round"/>
<ellipse cx="30.25" cy="39.5938" rx="4.625" ry="5.53125" fill="#462A05"/>
<ellipse cx="28.5625" cy="37.5" rx="1.6875" ry="1.875" fill="#905E10"/>
<ellipse cx="52.0625" cy="39.5938" rx="4.625" ry="5.53125" fill="#462A05"/>
<ellipse cx="50.375" cy="37.5" rx="1.6875" ry="1.875" fill="#905E10"/>
<rect x="18.3062" y="46.75" width="46.875" height="19.75" transform="rotate(6 18.3062 46.75)" fill="black"/>
<path d="M32.0918 57.7084L30.1824 57.5077L29.8727 58.6174L31.4957 58.788L31.2148 61.4612L29.1302 61.2422L28.5209 63.3661L25.4339 63.0416L26.0273 60.916L24.5634 60.7622L23.97 62.8878L21.1853 62.5951L21.7787 60.4695L20.1875 60.3022L20.4685 57.629L22.5212 57.8447L22.8309 56.735L21.0646 56.5494L21.3456 53.8761L23.5733 54.1102L24.1425 52.0625L26.943 52.3569L26.358 54.4029L27.806 54.5551L28.3751 52.5074L31.5099 52.8368L30.9248 54.8829L32.3728 55.0351L32.0918 57.7084ZM25.3058 58.1374L26.7539 58.2896L27.0635 57.1799L25.6314 57.0293L25.3058 58.1374Z" fill="white"/>
<path d="M38.3398 61.4218C38.7853 61.4686 39.1144 61.2458 39.1546 60.8639C39.1947 60.482 38.9032 60.194 38.4736 60.1488L36.8505 59.9782C34.3841 59.719 33.2165 58.5827 33.4289 56.5618C33.6145 54.7956 34.9208 53.6941 37.2256 53.8076L37.3878 52.2641L40.1725 52.5568L40.0119 54.0844L42.176 54.3118L41.9134 56.8101L37.3307 56.3284C36.8851 56.2816 36.6163 56.5429 36.5812 56.8771C36.5227 57.434 36.7622 57.604 37.3351 57.6642L38.9422 57.8331C39.7856 57.9217 40.4547 58.1369 40.9497 58.4785C41.8937 59.1408 42.2757 60.098 42.1637 61.1641C41.9697 63.0099 41.0009 64.1147 38.9616 64.0773L38.7843 65.7641L35.9997 65.4714L36.1736 63.8165L33.4685 63.5322L33.7411 60.9385L38.3398 61.4218Z" fill="white"/>
<path d="M46.899 63.0936L46.6381 65.576L43.758 65.2733L44.0189 62.7909L46.899 63.0936ZM44.7946 53.5735L48.1203 53.9231L46.7557 62.1616L44.337 61.9073L44.7946 53.5735Z" fill="white"/>
<path d="M55.7299 55.1572C56.9568 55.2701 57.9694 55.5857 58.7676 56.1039C60.3497 57.1229 61.0677 58.7107 60.8695 60.4434C60.6771 62.2734 59.3625 63.4544 57.453 63.2537C56.4983 63.1534 55.7126 62.6686 55.6589 61.9551C55.2051 62.5992 54.4983 62.8949 53.7186 62.8129C52.6525 62.7009 51.8961 61.7848 52.0316 60.4959C52.1653 58.9172 53.3996 57.8886 54.6693 58.0542C55.4171 58.1328 55.9817 58.5783 56.0965 59.1695L56.2815 58.4811L58.1909 58.6818L57.6034 60.9046C57.5138 61.2973 57.6194 61.5176 57.9376 61.551C58.2718 61.5862 58.6729 60.9848 58.7531 60.221C58.9488 58.3592 57.6405 57.3369 55.5242 57.1145C53.1373 56.8636 51.4115 58.1301 51.2225 60.2339C51.0034 62.3184 52.3101 63.6624 54.8084 63.9249C55.3971 63.9868 56.1425 63.9365 57.0461 63.7579L57.5287 65.5944C56.6293 65.886 55.6864 65.98 54.7157 65.878C50.7854 65.4649 48.7424 63.3196 49.0903 60.0098C49.1764 59.0375 49.4928 58.1698 50.0731 57.3942C51.2612 55.7333 53.3162 54.8553 55.7299 55.1572ZM53.9963 60.4772C53.9478 60.9386 54.1865 61.2694 54.6321 61.3162C55.1413 61.3697 55.5398 60.9451 55.6017 60.3563C55.6552 59.8471 55.4115 59.5641 54.95 59.5156C54.4886 59.4671 54.0615 59.8566 53.9963 60.4772Z" fill="white"/>
</svg>
