<svg width="82" height="81" viewBox="0 0 82 81" fill="none" xmlns="http://www.w3.org/2000/svg">
<circle cx="41.25" cy="40.5" r="40.5" fill="#FF8833"/>
<ellipse cx="29.625" cy="39.125" rx="4.6875" ry="5.25" fill="#462A05"/>
<circle cx="28.375" cy="37.3125" r="1.6875" fill="#905E10"/>
<ellipse cx="51.8125" cy="39.125" rx="4.6875" ry="5.25" fill="#462A05"/>
<circle cx="50.5625" cy="37.3125" r="1.6875" fill="#905E10"/>
<path d="M6.5 58.5378C6.5 51.3904 13.5202 37.25 15.2544 37.25C16.9885 37.25 23.6875 51.6222 23.6875 58.5378C23.6875 62.0922 21.5592 66.1875 15.2544 66.1875C8.99511 66.1875 6.5 61.5127 6.5 58.5378Z" fill="#00B6FB"/>
<path d="M16.8286 57.7414C16.8286 53.4454 18.6084 47.9861 19.048 47.9861C19.4877 47.9861 21.186 53.5847 21.186 57.7414C21.186 59.8779 20.6464 62.3394 19.048 62.3394C17.4612 62.3394 16.8286 59.5295 16.8286 57.7414Z" fill="#61D7FE" fill-opacity="0.5"/>
<path d="M19.5 25.9689C20.6354 24.198 24.5062 20.7876 30.9062 21.3126" stroke="#462A05" stroke-width="2.5" stroke-linecap="round"/>
<path d="M63.2188 25.9606C62.0833 24.1897 58.2125 20.7793 51.8125 21.3043" stroke="#462A05" stroke-width="2.5" stroke-linecap="round"/>
<path d="M29.1563 58.7173C29.1562 55.4374 34.5 51.2173 41.5 51.2173C48.0312 51.2173 53.2188 55.8749 53.2188 58.7173C53.2188 61.588 52.4375 64.5298 48.7188 64.5298C45.4688 64.5298 44.2629 63.305 41.3437 63.311C38.4607 63.317 36.75 64.5298 34.0625 64.5298C31.0603 64.5298 29.1563 61.7195 29.1563 58.7173Z" fill="#462A05"/>
</svg>
