<svg width="81" height="81" viewBox="0 0 81 81" fill="none" xmlns="http://www.w3.org/2000/svg">
<g filter="url(#filter0_ii_218_10904)">
<circle cx="40.5" cy="40.5" r="40.5" fill="#FF8833"/>
</g>
<ellipse cx="28.875" cy="39.125" rx="4.6875" ry="5.25" fill="#462A05"/>
<circle cx="27.625" cy="37.3125" r="1.6875" fill="#905E10"/>
<ellipse cx="51.0625" cy="39.125" rx="4.6875" ry="5.25" fill="#462A05"/>
<circle cx="49.8125" cy="37.3125" r="1.6875" fill="#905E10"/>
<path d="M5.75 58.5378C5.75 51.3904 12.7702 37.25 14.5044 37.25C16.2385 37.25 22.9375 51.6222 22.9375 58.5378C22.9375 62.0922 20.8092 66.1875 14.5044 66.1875C8.24511 66.1875 5.75 61.5127 5.75 58.5378Z" fill="#00B6FB"/>
<path d="M16.0786 57.7414C16.0786 53.4454 17.8584 47.9861 18.298 47.9861C18.7377 47.9861 20.436 53.5847 20.436 57.7414C20.436 59.8779 19.8964 62.3394 18.298 62.3394C16.7112 62.3394 16.0786 59.5295 16.0786 57.7414Z" fill="#61D7FE" fill-opacity="0.5"/>
<path d="M18.75 25.9689C19.8854 24.198 23.7562 20.7876 30.1562 21.3126" stroke="#462A05" stroke-width="2.5" stroke-linecap="round"/>
<path d="M62.4688 25.9606C61.3333 24.1897 57.4625 20.7793 51.0625 21.3043" stroke="#462A05" stroke-width="2.5" stroke-linecap="round"/>
<path d="M28.4063 58.7173C28.4062 55.4374 33.75 51.2173 40.75 51.2173C47.2812 51.2173 52.4688 55.8749 52.4688 58.7173C52.4688 61.588 51.6875 64.5298 47.9688 64.5298C44.7188 64.5298 43.5129 63.305 40.5937 63.311C37.7107 63.317 36 64.5298 33.3125 64.5298C30.3103 64.5298 28.4063 61.7195 28.4063 58.7173Z" fill="#462A05"/>
<defs>
<filter id="filter0_ii_218_10904" x="-6" y="-6" width="93" height="93" filterUnits="userSpaceOnUse" color-interpolation-filters="sRGB">
<feFlood flood-opacity="0" result="BackgroundImageFix"/>
<feBlend mode="normal" in="SourceGraphic" in2="BackgroundImageFix" result="shape"/>
<feColorMatrix in="SourceAlpha" type="matrix" values="0 0 0 0 0 0 0 0 0 0 0 0 0 0 0 0 0 0 127 0" result="hardAlpha"/>
<feOffset dx="-6" dy="-6"/>
<feGaussianBlur stdDeviation="6"/>
<feComposite in2="hardAlpha" operator="arithmetic" k2="-1" k3="1"/>
<feColorMatrix type="matrix" values="0 0 0 0 0.839128 0 0 0 0 0.349637 0 0 0 0 0 0 0 0 1 0"/>
<feBlend mode="normal" in2="shape" result="effect1_innerShadow_218_10904"/>
<feColorMatrix in="SourceAlpha" type="matrix" values="0 0 0 0 0 0 0 0 0 0 0 0 0 0 0 0 0 0 127 0" result="hardAlpha"/>
<feOffset dx="6" dy="6"/>
<feGaussianBlur stdDeviation="6"/>
<feComposite in2="hardAlpha" operator="arithmetic" k2="-1" k3="1"/>
<feColorMatrix type="matrix" values="0 0 0 0 1 0 0 0 0 0.70746 0 0 0 0 0.498503 0 0 0 1 0"/>
<feBlend mode="normal" in2="effect1_innerShadow_218_10904" result="effect2_innerShadow_218_10904"/>
</filter>
</defs>
</svg>
