<svg width="81" height="82" viewBox="0 0 81 82" fill="none" xmlns="http://www.w3.org/2000/svg">
<circle cx="40.5" cy="41.25" r="40.5" fill="#FFF666"/>
<path fill-rule="evenodd" clip-rule="evenodd" d="M29.7114 24.9177C25.066 24.5922 20.8839 26.1316 18.1193 29.2129C17.7505 29.624 17.1183 29.6583 16.7072 29.2894C16.2961 28.9206 16.2619 28.2884 16.6307 27.8773C19.8662 24.2711 24.684 22.5605 29.8512 22.9226C30.4021 22.9612 30.8174 23.4391 30.7788 23.99C30.7402 24.5409 30.2623 24.9563 29.7114 24.9177ZM32.3678 42.0593C30.1025 38.22 24.2789 37.6765 20.976 42.2016C20.4062 42.9823 19.3115 43.1533 18.5308 42.5835C17.7501 42.0137 17.5792 40.9189 18.149 40.1382C22.7836 33.7884 31.71 34.0572 35.3822 40.2806C35.8733 41.113 35.5967 42.186 34.7643 42.6771C33.9319 43.1683 32.859 42.8917 32.3678 42.0593ZM60.0865 42.2541C56.7837 37.729 50.96 38.2725 48.6947 42.1117C48.2036 42.9441 47.1306 43.2207 46.2982 42.7296C45.4658 42.2384 45.1892 41.1654 45.6803 40.3331C49.3525 34.1096 58.2789 33.8408 62.9135 40.1906C63.4833 40.9713 63.3124 42.0661 62.5317 42.6359C61.7511 43.2057 60.6563 43.0347 60.0865 42.2541ZM50.9458 25.4112C56.0372 24.7264 59.6353 25.8533 62.669 28.627C63.0766 28.9996 63.7091 28.9713 64.0818 28.5637C64.4545 28.1561 64.4261 27.5236 64.0185 27.1509C60.4898 23.9246 56.2753 22.6764 50.6792 23.4291C50.1319 23.5027 49.7478 24.0061 49.8214 24.5535C49.8951 25.1008 50.3985 25.4849 50.9458 25.4112ZM30.5 57.1834C28.8803 56.2949 27.6662 55.6289 27.1564 56.1387C25.6739 57.6212 29.2501 62.0138 31.8751 63.3891C34.4938 64.7611 38.0124 65.8578 40.9688 65.8578C43.9251 65.8578 46.5717 65.0292 49.0313 63.3891C51.5626 61.7013 55.3751 57.7013 53.8126 56.1388C53.3116 55.6378 52.2341 56.2868 50.7784 57.1636C49.8446 57.7261 48.7552 58.3823 47.5626 58.8888C45.3962 59.8088 42.6412 60.17 40.9688 60.17C39.2689 60.17 36.3628 59.8294 33.9688 58.8889C32.7014 58.3909 31.5202 57.743 30.5 57.1834Z" fill="#666000"/>
<g filter="url(#filter0_f_218_10583)">
<path fill-rule="evenodd" clip-rule="evenodd" d="M14.7188 55.9827C19.2924 55.9827 23 52.275 23 47.7014C23 43.1278 19.2924 39.4202 14.7188 39.4202C10.1451 39.4202 6.4375 43.1278 6.4375 47.7014C6.4375 52.275 10.1451 55.9827 14.7188 55.9827ZM66.2812 55.9827C70.8549 55.9827 74.5625 52.275 74.5625 47.7014C74.5625 43.1278 70.8549 39.4202 66.2812 39.4202C61.7076 39.4202 58 43.1278 58 47.7014C58 52.275 61.7076 55.9827 66.2812 55.9827Z" fill="#FF9191" fill-opacity="0.8"/>
</g>
<defs>
<filter id="filter0_f_218_10583" x="0.1875" y="33.1702" width="80.625" height="29.0625" filterUnits="userSpaceOnUse" color-interpolation-filters="sRGB">
<feFlood flood-opacity="0" result="BackgroundImageFix"/>
<feBlend mode="normal" in="SourceGraphic" in2="BackgroundImageFix" result="shape"/>
<feGaussianBlur stdDeviation="3.125" result="effect1_foregroundBlur_218_10583"/>
</filter>
</defs>
</svg>
