<svg width="82" height="81" viewBox="0 0 82 81" fill="none" xmlns="http://www.w3.org/2000/svg">
<g filter="url(#filter0_ii_218_10575)">
<circle cx="40.75" cy="40.5" r="40.5" fill="#85E08E"/>
</g>
<path fill-rule="evenodd" clip-rule="evenodd" d="M50.875 24.6875C55.0918 24.6875 58.5397 26.2236 61.3494 29.3553C61.7183 29.7664 62.3505 29.8007 62.7616 29.4318C63.1727 29.063 63.2069 28.4308 62.8381 28.0197C59.6479 24.4639 55.6582 22.6875 50.875 22.6875C50.3227 22.6875 49.875 23.1352 49.875 23.6875C49.875 24.2398 50.3227 24.6875 50.875 24.6875ZM29.6875 24.6875C25.4707 24.6875 22.0229 26.2236 19.2131 29.3553C18.8443 29.7664 18.212 29.8007 17.801 29.4319C17.3899 29.063 17.3556 28.4308 17.7244 28.0197C20.9147 24.4639 24.9043 22.6875 29.6875 22.6875C30.2398 22.6875 30.6875 23.1352 30.6875 23.6875C30.6875 24.2398 30.2398 24.6875 29.6875 24.6875ZM32.6178 35.1178C30.4056 38.867 24.8944 38.9244 22.1529 35.0042C21.599 34.2122 20.5079 34.0191 19.7158 34.573C18.9238 35.1269 18.7308 36.218 19.2847 37.0101C23.2306 42.6525 31.9069 43.21 35.6322 36.8965C36.1234 36.0641 35.8467 34.9911 35.0143 34.5C34.1819 34.0088 33.109 34.2854 32.6178 35.1178ZM48.6841 35.0042C51.4256 38.9244 56.9369 38.867 59.1491 35.1178C59.6402 34.2854 60.7132 34.0088 61.5456 34.5C62.378 34.9911 62.6546 36.0641 62.1634 36.8965C58.4381 43.21 49.7619 42.6525 45.8159 37.0101C45.262 36.218 45.4551 35.1269 46.2471 34.573C47.0391 34.0191 48.1302 34.2122 48.6841 35.0042ZM34.9181 54.5669C33.0482 53.7592 31.524 53.1008 30.8748 53.7502C29.4376 55.1878 31.765 58.1783 33.7186 60.0314C35.8634 62.066 37.9185 62.5002 40.8748 62.5002C43.8311 62.5002 45.8863 62.066 48.0311 60.0314C49.9846 58.1783 51.5311 55.469 50.1249 54.0627C49.4006 53.3384 48.0369 53.949 46.3342 54.7115C44.7314 55.4292 42.8281 56.2814 40.8748 56.2814C38.8874 56.2814 36.7389 55.3534 34.9181 54.5669Z" fill="#15511B"/>
<defs>
<filter id="filter0_ii_218_10575" x="-5.75" y="-6" width="93" height="93" filterUnits="userSpaceOnUse" color-interpolation-filters="sRGB">
<feFlood flood-opacity="0" result="BackgroundImageFix"/>
<feBlend mode="normal" in="SourceGraphic" in2="BackgroundImageFix" result="shape"/>
<feColorMatrix in="SourceAlpha" type="matrix" values="0 0 0 0 0 0 0 0 0 0 0 0 0 0 0 0 0 0 127 0" result="hardAlpha"/>
<feOffset dx="-6" dy="-6"/>
<feGaussianBlur stdDeviation="6"/>
<feComposite in2="hardAlpha" operator="arithmetic" k2="-1" k3="1"/>
<feColorMatrix type="matrix" values="0 0 0 0 0.289629 0 0 0 0 0.791718 0 0 0 0 0.339838 0 0 0 1 0"/>
<feBlend mode="normal" in2="shape" result="effect1_innerShadow_218_10575"/>
<feColorMatrix in="SourceAlpha" type="matrix" values="0 0 0 0 0 0 0 0 0 0 0 0 0 0 0 0 0 0 127 0" result="hardAlpha"/>
<feOffset dx="6" dy="6"/>
<feGaussianBlur stdDeviation="6"/>
<feComposite in2="hardAlpha" operator="arithmetic" k2="-1" k3="1"/>
<feColorMatrix type="matrix" values="0 0 0 0 0.649667 0 0 0 0 0.943074 0 0 0 0 0.678686 0 0 0 1 0"/>
<feBlend mode="normal" in2="effect1_innerShadow_218_10575" result="effect2_innerShadow_218_10575"/>
</filter>
</defs>
</svg>
