<svg width="81" height="81" viewBox="0 0 81 81" fill="none" xmlns="http://www.w3.org/2000/svg">
<circle cx="40.5" cy="40.5" r="40.5" fill="#85E08E"/>
<path fill-rule="evenodd" clip-rule="evenodd" d="M50.625 24.6875C54.8418 24.6875 58.2897 26.2236 61.0994 29.3553C61.4683 29.7664 62.1005 29.8007 62.5116 29.4318C62.9227 29.063 62.9569 28.4308 62.5881 28.0197C59.3979 24.4639 55.4082 22.6875 50.625 22.6875C50.0727 22.6875 49.625 23.1352 49.625 23.6875C49.625 24.2398 50.0727 24.6875 50.625 24.6875ZM29.4375 24.6875C25.2207 24.6875 21.7729 26.2236 18.9631 29.3553C18.5943 29.7664 17.962 29.8007 17.551 29.4319C17.1399 29.063 17.1056 28.4308 17.4744 28.0197C20.6647 24.4639 24.6543 22.6875 29.4375 22.6875C29.9898 22.6875 30.4375 23.1352 30.4375 23.6875C30.4375 24.2398 29.9898 24.6875 29.4375 24.6875ZM32.3678 35.1178C30.1556 38.867 24.6444 38.9244 21.9029 35.0042C21.349 34.2122 20.2579 34.0191 19.4658 34.573C18.6738 35.1269 18.4808 36.218 19.0347 37.0101C22.9806 42.6525 31.6569 43.21 35.3822 36.8965C35.8734 36.0641 35.5967 34.9911 34.7643 34.5C33.9319 34.0088 32.859 34.2854 32.3678 35.1178ZM48.4341 35.0042C51.1757 38.9244 56.6869 38.867 58.8991 35.1178C59.3902 34.2854 60.4632 34.0088 61.2956 34.5C62.128 34.9911 62.4046 36.0641 61.9135 36.8965C58.1881 43.21 49.5119 42.6525 45.5659 37.0101C45.012 36.218 45.2051 35.1269 45.9971 34.573C46.7891 34.0191 47.8802 34.2122 48.4341 35.0042ZM34.6681 54.5669C32.7982 53.7592 31.274 53.1008 30.6248 53.7502C29.1876 55.1878 31.515 58.1783 33.4686 60.0314C35.6134 62.066 37.6685 62.5002 40.6248 62.5002C43.5811 62.5002 45.6363 62.066 47.7811 60.0314C49.7346 58.1783 51.2811 55.469 49.8749 54.0627C49.1506 53.3384 47.7869 53.949 46.0842 54.7115C44.4814 55.4292 42.5781 56.2814 40.6248 56.2814C38.6374 56.2814 36.4889 55.3534 34.6681 54.5669Z" fill="#15511B"/>
</svg>
