<svg width="81" height="82" viewBox="0 0 81 82" fill="none" xmlns="http://www.w3.org/2000/svg">
<circle cx="40.5" cy="41" r="40.5" fill="#4C4DFF"/>
<ellipse cx="28.875" cy="33.4375" rx="4.6875" ry="5.25" fill="#462A05"/>
<circle cx="27.625" cy="31.625" r="1.6875" fill="#905E10"/>
<ellipse cx="51.0625" cy="33.4375" rx="4.6875" ry="5.25" fill="#462A05"/>
<circle cx="49.8125" cy="31.625" r="1.6875" fill="#905E10"/>
<path d="M24.1876 49.5627C26.2814 46.4689 29.1876 53.4689 39.0626 53.4689C48.9376 53.4689 52.6355 48.0626 54.0939 50.2501C54.9689 51.5626 51.737 53.8673 49.3126 55.1877C45.8126 57.0939 42.1251 57.6252 39.0626 57.6252C36.7189 57.6252 33.3947 56.9436 30.3126 55.1877C27.4908 53.58 23.2782 50.9064 24.1876 49.5627Z" fill="#462A05"/>
<path d="M17.9375 58.9127C17.9375 53.1083 23.375 41.625 24.7182 41.625C26.0613 41.625 31.25 53.2966 31.25 58.9127C31.25 61.7992 29.6015 65.125 24.7182 65.125C19.8701 65.125 17.9375 61.3286 17.9375 58.9127Z" fill="#00B6FB"/>
<path d="M25.9375 58.266C25.9375 54.7772 27.316 50.3438 27.6565 50.3438C27.9971 50.3438 29.3125 54.8904 29.3125 58.266C29.3125 60.001 28.8946 62 27.6565 62C26.4274 62 25.9375 59.7181 25.9375 58.266Z" fill="#61D7FE" fill-opacity="0.5"/>
</svg>
