<svg width="82" height="82" viewBox="0 0 82 82" fill="none" xmlns="http://www.w3.org/2000/svg">
<circle cx="41.25" cy="41.25" r="40.5" fill="#FFD166"/>
<path fill-rule="evenodd" clip-rule="evenodd" d="M20.3693 36.193C20.7977 35.3266 21.8473 34.9716 22.7137 35.4L36.7294 42.3305C38.1977 43.0565 38.0261 45.2033 36.4612 45.6869L22.4547 50.0156C21.5313 50.301 20.5514 49.7838 20.266 48.8604C19.9806 47.937 20.4978 46.9571 21.4212 46.6717L31.3851 43.5923L21.1623 38.5373C20.2959 38.1089 19.9409 37.0593 20.3693 36.193ZM62.1629 36.2242C61.7345 35.3578 60.6849 35.0028 59.8185 35.4312L45.8028 42.3617C44.3344 43.0878 44.5061 45.2345 46.071 45.7181L60.0775 50.0469C61.0009 50.3323 61.9808 49.815 62.2662 48.8916C62.5516 47.9682 62.0343 46.9883 61.1109 46.7029L51.1471 43.6236L61.3699 38.5686C62.2363 38.1402 62.5913 37.0906 62.1629 36.2242ZM30.5883 62.4483L35.5284 58.2282L39.6242 62.3482C40.3 63.028 41.3883 63.064 42.1076 62.4305L46.8763 58.23L51.1099 62.3662C51.8021 63.0426 52.9037 63.0557 53.6119 62.396L58.1308 58.1866C58.838 57.5279 58.8772 56.4205 58.2185 55.7133C57.5597 55.0061 56.4524 54.9669 55.7452 55.6256L52.4043 58.7377L48.2024 54.6324C47.524 53.9696 46.4494 53.9419 45.7377 54.5688L40.9863 58.754L36.9074 54.651C36.239 53.9786 35.1655 53.9349 34.4447 54.5507L29.5283 58.7507L26.6092 55.6969C25.9414 54.9983 24.8337 54.9733 24.135 55.6411C23.4363 56.3089 23.4114 57.4167 24.0792 58.1154L28.1009 62.3226C28.7654 63.0178 29.8571 63.073 30.5883 62.4483Z" fill="#664700"/>
</svg>
