<svg width="82" height="81" viewBox="0 0 82 81" fill="none" xmlns="http://www.w3.org/2000/svg">
<circle cx="41" cy="40.5" r="40.5" fill="#6FE0C7"/>
<path d="M22.2812 29.5625L36.2805 35.8668C36.3338 35.8908 36.3279 35.9682 36.2717 35.984L21.7188 40.0625" stroke="#125445" stroke-width="3.5" stroke-linecap="round"/>
<path d="M59.4688 29.5625L45.4695 35.8668C45.4162 35.8908 45.4221 35.9682 45.4783 35.984L60.0312 40.0625" stroke="#125445" stroke-width="3.5" stroke-linecap="round"/>
<path d="M19.5868 46.9121C21.8993 43.9433 23.2431 48.7246 40.5868 48.7246C59.1806 48.7247 60.6181 43.2558 62.5869 47.6622C63.4898 51.6622 60.6592 55.1523 56.8994 58.9121C53.7431 62.0684 47.1558 64.0096 40.5868 64.0059C34.0294 64.0022 28.1493 61.4746 24.8681 58.9121C21.5869 56.3497 17.9667 51.764 19.5868 46.9121Z" fill="#462A05"/>
<path d="M19.4307 47.5056C21.1494 43.4431 23.2432 48.7244 40.5869 48.7244C59.1807 48.7245 60.7432 43.0368 62.7119 47.9119C62.7119 47.9119 55.4619 52.5056 40.5869 52.5056C27.8057 52.5056 19.4307 47.5056 19.4307 47.5056Z" fill="white"/>
<path d="M40.4307 57.9123C35.333 58.0601 31.808 60.6958 30.7281 62.0391C30.7029 62.0704 30.7129 62.1139 30.7497 62.1299C31.3183 62.3769 35.3436 64.0368 40.8682 64.0368C46.3744 64.0368 50.2318 62.6015 50.7965 62.3791C50.8344 62.3642 50.845 62.3194 50.8203 62.2871C49.2017 60.1758 45.5545 57.7638 40.4307 57.9123Z" fill="#FF6E6B"/>
</svg>
