<svg width="82" height="81" viewBox="0 0 82 81" fill="none" xmlns="http://www.w3.org/2000/svg">
<circle cx="41.25" cy="40.5" r="40.5" fill="#C0E06E"/>
<path d="M19.0243 46.5371C21.3368 43.5683 22.6806 48.3496 40.0243 48.3496C58.6181 48.3497 60.0556 42.8808 62.0244 47.2872C62.9273 51.2872 60.0967 54.7773 56.3369 58.5371C53.1806 61.6934 46.5933 63.6346 40.0243 63.6309C33.4669 63.6272 27.5868 61.0996 24.3056 58.5371C21.0244 55.9747 17.4042 51.389 19.0243 46.5371Z" fill="#462A05"/>
<path d="M18.8682 47.1306C20.5869 43.0681 22.6807 48.3494 40.0244 48.3494C58.6182 48.3495 60.1807 42.6618 62.1494 47.5369C62.1494 47.5369 54.8994 52.1306 40.0244 52.1306C27.2432 52.1306 18.8682 47.1306 18.8682 47.1306Z" fill="white"/>
<path d="M39.8682 57.5373C34.7705 57.6851 31.2455 60.3208 30.1656 61.6641C30.1404 61.6954 30.1504 61.7389 30.1872 61.7549C30.7558 62.0019 34.7811 63.6618 40.3057 63.6618C45.8119 63.6618 49.6693 62.2265 50.234 62.0041C50.2719 61.9892 50.2825 61.9444 50.2578 61.9121C48.6392 59.8008 44.992 57.3888 39.8682 57.5373Z" fill="#FF6E6B"/>
<ellipse cx="30.1875" cy="32.4375" rx="4.625" ry="8.875" fill="#462A05"/>
<circle cx="29.0625" cy="27.1875" r="1.5625" fill="#905E10"/>
<ellipse cx="52.1875" cy="32.4375" rx="4.625" ry="8.875" fill="#462A05"/>
<circle cx="51.0625" cy="27.1875" r="1.5625" fill="#905E10"/>
</svg>
