<svg width="82" height="82" viewBox="0 0 82 82" fill="none" xmlns="http://www.w3.org/2000/svg">
<circle cx="41.25" cy="41.25" r="40.5" fill="#A280FF"/>
<path fill-rule="evenodd" clip-rule="evenodd" d="M36.4164 43.2277C37.2398 43.7337 37.4972 44.8115 36.9912 45.6349C35.3198 48.355 32.168 49.5542 29.38 50.0735C26.5221 50.6059 23.5788 50.5141 21.7078 50.2661C20.7497 50.1391 20.0759 49.2595 20.2029 48.3013C20.3298 47.3432 21.2095 46.6694 22.1676 46.7964C23.7549 47.0068 26.3178 47.0837 28.7391 46.6327C31.2304 46.1687 33.1306 45.2325 34.0092 43.8026C34.5152 42.9791 35.5929 42.7217 36.4164 43.2277ZM47.1465 43.259C46.3231 43.765 46.0657 44.8427 46.5717 45.6662C48.2431 48.3862 51.3949 49.5855 54.1829 50.1048C57.0408 50.6371 59.9841 50.5453 61.8551 50.2973C62.8132 50.1704 63.487 49.2907 63.36 48.3326C63.2331 47.3745 62.3534 46.7007 61.3953 46.8277C59.808 47.038 57.2451 47.115 54.8238 46.664C52.3325 46.1999 50.4323 45.2638 49.5537 43.8338C49.0477 43.0104 47.97 42.753 47.1465 43.259ZM31.5 64.7295C32.2588 63.7056 33.745 62.1196 35.6341 60.8442C37.5337 59.5617 39.663 58.7108 41.7676 58.8405C43.9757 58.9765 46.0435 59.9341 47.7774 61.1658C49.5122 62.3981 50.7965 63.8231 51.4151 64.6979C51.973 65.487 53.0651 65.6744 53.8543 65.1164C54.6434 64.5585 54.8308 63.4664 54.2728 62.6772C53.4331 61.4895 51.8705 59.7801 49.8043 58.3124C47.7371 56.8441 45.0497 55.5361 41.9828 55.3471C38.8124 55.1518 35.9157 56.4311 33.6757 57.9434C31.4252 59.4628 29.6583 61.3362 28.6879 62.6456C28.1125 63.4221 28.2755 64.5181 29.052 65.0935C29.8285 65.669 30.9245 65.506 31.5 64.7295Z" fill="#290099"/>
</svg>
