<svg width="82" height="82" viewBox="0 0 82 82" fill="none" xmlns="http://www.w3.org/2000/svg">
<circle cx="41" cy="41" r="40.5" fill="#66C6FF"/>
<ellipse cx="29.6562" cy="33.3438" rx="4.21875" ry="6.78125" fill="#462A05"/>
<circle cx="29.3125" cy="30.875" r="1.6875" fill="#905E10"/>
<ellipse cx="52.7812" cy="33.3438" rx="4.21875" ry="6.78125" fill="#462A05"/>
<circle cx="52.4375" cy="30.875" r="1.6875" fill="#905E10"/>
<path fill-rule="evenodd" clip-rule="evenodd" d="M19.875 47.5C19.0811 47.5 18.4375 48.1436 18.4375 48.9375V53.1875V54.5625C18.4375 55.3564 19.0811 56 19.875 56H21.9375H23.25V58.8125C23.25 59.6064 23.8936 60.25 24.6875 60.25H26.75C27.5439 60.25 28.1875 59.6064 28.1875 58.8125V56H29.625H31.6875H33.125V58.8125C33.125 59.6064 33.7686 60.25 34.5625 60.25H36.625C37.4189 60.25 38.0625 59.6064 38.0625 58.8125V56H39.5H41.5625H43V58.8125C43 59.6064 43.6436 60.25 44.4375 60.25H46.5C47.2939 60.25 47.9375 59.6064 47.9375 58.8125V56H49.375H51.4375H52.875V58.8125C52.875 59.6064 53.5186 60.25 54.3125 60.25H56.375C57.1689 60.25 57.8125 59.6064 57.8125 58.8125V56H59.25H60.9472L63.2624 58.1226C62.9892 59.0672 63.2754 60.1263 64.0771 60.7991L69.56 65.3997C70.6441 66.3094 72.2604 66.168 73.1701 65.0839L74.9136 63.0061C75.8233 61.922 75.6818 60.3057 74.5977 59.396L69.1148 54.7953C68.1772 54.0086 66.8416 54.008 65.9092 54.7235L62.771 51.8464L62.75 51.8276V48.9375C62.75 48.1436 62.1064 47.5 61.3125 47.5H59.25C58.4561 47.5 57.8125 48.1436 57.8125 48.9375V51.75H56.375H54.3125H52.875V48.9375C52.875 48.1436 52.2314 47.5 51.4375 47.5H49.375C48.5811 47.5 47.9375 48.1436 47.9375 48.9375V51.75H46.5H44.4375H43V48.9375C43 48.1436 42.3564 47.5 41.5625 47.5H39.5C38.7061 47.5 38.0625 48.1436 38.0625 48.9375V51.75H36.625H34.5625H33.125V48.9375C33.125 48.1436 32.4814 47.5 31.6875 47.5H29.625C28.8311 47.5 28.1875 48.1436 28.1875 48.9375V51.75H26.75H24.6875H23.375V48.9375C23.375 48.1436 22.7314 47.5 21.9375 47.5H19.875ZM68.5352 56.6029C67.9741 56.132 67.1374 56.2052 66.6665 56.7664L65.353 58.3318C64.8821 58.893 64.9553 59.7296 65.5165 60.2005C66.0777 60.6714 66.9144 60.5982 67.3853 60.037L68.6987 58.4717C69.1696 57.9105 69.0964 57.0738 68.5352 56.6029ZM72.5386 59.8069C71.5959 59.0158 70.1903 59.1388 69.3993 60.0816L69.2452 60.2652C68.4541 61.2079 68.5771 62.6135 69.5199 63.4045C70.4626 64.1956 71.8681 64.0726 72.6592 63.1299L72.8133 62.9463C73.6043 62.0035 73.4814 60.598 72.5386 59.8069Z" fill="#005080"/>
</svg>
