<svg width="82" height="82" viewBox="0 0 82 82" fill="none" xmlns="http://www.w3.org/2000/svg">
<g filter="url(#filter0_ii_218_10740)">
<circle cx="41.25" cy="41" r="40.5" fill="#66C6FF"/>
</g>
<ellipse cx="29.9062" cy="33.3438" rx="4.21875" ry="6.78125" fill="#462A05"/>
<circle cx="29.5625" cy="30.875" r="1.6875" fill="#905E10"/>
<ellipse cx="53.0312" cy="33.3438" rx="4.21875" ry="6.78125" fill="#462A05"/>
<circle cx="52.6875" cy="30.875" r="1.6875" fill="#905E10"/>
<path fill-rule="evenodd" clip-rule="evenodd" d="M18.6875 48.9375C18.6875 48.1436 19.3311 47.5 20.125 47.5H22.1875C22.9814 47.5 23.625 48.1436 23.625 48.9375V51.75H24.9375H27H28.4375V48.9375C28.4375 48.1436 29.0811 47.5 29.875 47.5H31.9375C32.7314 47.5 33.375 48.1436 33.375 48.9375V51.75H34.8125H36.875H38.3125V48.9375C38.3125 48.1436 38.9561 47.5 39.75 47.5H41.8125C42.6064 47.5 43.25 48.1436 43.25 48.9375V51.75H44.6875H46.75H48.1875V48.9375C48.1875 48.1436 48.8311 47.5 49.625 47.5H51.6875C52.4814 47.5 53.125 48.1436 53.125 48.9375V51.75H54.5625H56.625H58.0625V48.9375C58.0625 48.1436 58.7061 47.5 59.5 47.5H61.5625C62.3564 47.5 63 48.1436 63 48.9375V51.8276L63.021 51.8464L66.5294 55.0628C67.1146 55.5993 67.1541 56.5087 66.6176 57.0939L65.6586 58.1399C65.1221 58.7251 64.2127 58.7646 63.6275 58.2281L61.1972 56H59.5H58.0625V58.8125C58.0625 59.6064 57.4189 60.25 56.625 60.25H54.5625C53.7686 60.25 53.125 59.6064 53.125 58.8125V56H51.6875H49.625H48.1875V58.8125C48.1875 59.6064 47.5439 60.25 46.75 60.25H44.6875C43.8936 60.25 43.25 59.6064 43.25 58.8125V56H41.8125H39.75H38.3125V58.8125C38.3125 59.6064 37.6689 60.25 36.875 60.25H34.8125C34.0186 60.25 33.375 59.6064 33.375 58.8125V56H31.9375H29.875H28.4375V58.8125C28.4375 59.6064 27.7939 60.25 27 60.25H24.9375C24.1436 60.25 23.5 59.6064 23.5 58.8125V56H22.1875H20.125C19.3311 56 18.6875 55.3564 18.6875 54.5625V53.1875V48.9375Z" fill="#005080"/>
<path fill-rule="evenodd" clip-rule="evenodd" d="M69.3648 54.7954C68.2806 53.8857 66.6643 54.0271 65.7546 55.1112L64.0112 57.189C63.1015 58.2731 63.2429 59.8894 64.327 60.7991L69.8099 65.3998C70.894 66.3095 72.5104 66.1681 73.42 65.0839L75.1635 63.0062C76.0732 61.9221 75.9318 60.3057 74.8476 59.396L69.3648 54.7954ZM66.9159 56.7663C67.3868 56.2051 68.2235 56.1319 68.7847 56.6028C69.3459 57.0737 69.4191 57.9104 68.9482 58.4716L67.6347 60.037C67.1638 60.5982 66.3271 60.6714 65.7659 60.2005C65.2047 59.7296 65.1315 58.8929 65.6024 58.3317L66.9159 56.7663ZM69.6487 60.0815C70.4397 59.1388 71.8453 59.0158 72.788 59.8069C73.7308 60.5979 73.8538 62.0035 73.0627 62.9462L72.9086 63.1298C72.1176 64.0726 70.712 64.1956 69.7693 63.4045C68.8265 62.6134 68.7035 61.2079 69.4946 60.2651L69.6487 60.0815Z" fill="#005080"/>
<defs>
<filter id="filter0_ii_218_10740" x="-5.25" y="-5.5" width="93" height="93" filterUnits="userSpaceOnUse" color-interpolation-filters="sRGB">
<feFlood flood-opacity="0" result="BackgroundImageFix"/>
<feBlend mode="normal" in="SourceGraphic" in2="BackgroundImageFix" result="shape"/>
<feColorMatrix in="SourceAlpha" type="matrix" values="0 0 0 0 0 0 0 0 0 0 0 0 0 0 0 0 0 0 127 0" result="hardAlpha"/>
<feOffset dx="-6" dy="-6"/>
<feGaussianBlur stdDeviation="6"/>
<feComposite in2="hardAlpha" operator="arithmetic" k2="-1" k3="1"/>
<feColorMatrix type="matrix" values="0 0 0 0 0.178746 0 0 0 0 0.61847 0 0 0 0 0.879557 0 0 0 1 0"/>
<feBlend mode="normal" in2="shape" result="effect1_innerShadow_218_10740"/>
<feColorMatrix in="SourceAlpha" type="matrix" values="0 0 0 0 0 0 0 0 0 0 0 0 0 0 0 0 0 0 127 0" result="hardAlpha"/>
<feOffset dx="6" dy="6"/>
<feGaussianBlur stdDeviation="6"/>
<feComposite in2="hardAlpha" operator="arithmetic" k2="-1" k3="1"/>
<feColorMatrix type="matrix" values="0 0 0 0 0.658187 0 0 0 0 0.872658 0 0 0 0 1 0 0 0 1 0"/>
<feBlend mode="normal" in2="effect1_innerShadow_218_10740" result="effect2_innerShadow_218_10740"/>
</filter>
</defs>
</svg>
