<svg width="82" height="82" viewBox="0 0 82 82" fill="none" xmlns="http://www.w3.org/2000/svg">
<circle cx="41.25" cy="41" r="40.5" fill="#6666FF"/>
<path d="M20.7746 60.1621C22.1253 56.5314 24.4308 45.0996 41.7746 45.0996C60.3683 45.0997 62.469 56.8127 63.7746 60.9122C64.5628 66.0314 61.6565 66.5002 58.0871 65.9121C53.6829 65.1865 48.3436 61.0096 41.7746 61.0059C35.2172 61.0022 29.4239 65.1991 26.0559 65.9121C22.6878 66.6252 20.2815 64.8127 20.7746 60.1621Z" fill="#462A05"/>
<path d="M24.8125 51.8755C28.5625 47.063 34.0312 45.0945 41.7743 45.0942C53.25 45.0939 58.3125 49.7817 59.5938 51.8755C59.5938 51.8755 53.0312 49.1564 41.7743 49.1564C31.3682 49.1564 24.8125 51.8755 24.8125 51.8755Z" fill="white"/>
<path d="M20.0625 36.4375C20.5938 34.9479 22.7312 31.9688 27.0312 31.9688C31.3313 31.9688 33.5521 34.9479 34.125 36.4375" stroke="#462A05" stroke-width="3.5" stroke-linecap="round"/>
<path d="M16.2812 30.9688C17.5417 28.5417 21.3 23.575 26.25 23.125" stroke="#462A05" stroke-width="2.5" stroke-linecap="round"/>
<path d="M65.9062 30.9688C64.6458 28.5417 60.8875 23.575 55.9375 23.125" stroke="#462A05" stroke-width="2.5" stroke-linecap="round"/>
<path d="M21.5 37.7189C21.5 37.7189 22.9062 34.2502 26.1562 33.7502C29.4062 33.2502 31.5625 35.2502 31.5625 35.2502V80.2814C31.5625 80.2814 25.8438 79.0627 21.4688 76.3439C21.4688 68.9064 21.5 37.7189 21.5 37.7189Z" fill="url(#paint0_linear_218_10663)"/>
<path d="M61.0625 37.7366C61.0625 37.7366 59.7812 34.3794 56.4062 33.7678C53.0312 33.1563 51 35.0178 51 35.0178V80.2991C51 80.2991 56.5938 78.9689 61.0625 76.3126C61.0625 68.8751 61.0625 37.7366 61.0625 37.7366Z" fill="url(#paint1_linear_218_10663)"/>
<path d="M47.9375 36.4062C48.4688 34.9167 50.6062 31.9375 54.9062 31.9375C59.2063 31.9375 61.4271 34.9167 62 36.4062" stroke="#462A05" stroke-width="3.5" stroke-linecap="round"/>
<defs>
<linearGradient id="paint0_linear_218_10663" x1="21.4375" y1="53.2189" x2="31.5625" y2="53.0939" gradientUnits="userSpaceOnUse">
<stop stop-color="#00B9FC"/>
<stop offset="0.583333" stop-color="#61D7FE"/>
<stop offset="1" stop-color="#00B9FC"/>
</linearGradient>
<linearGradient id="paint1_linear_218_10663" x1="51" y1="57.0001" x2="61.0625" y2="57.0001" gradientUnits="userSpaceOnUse">
<stop stop-color="#00B9FC"/>
<stop offset="0.473958" stop-color="#61D7FE"/>
<stop offset="1" stop-color="#00B9FC"/>
</linearGradient>
</defs>
</svg>
