<svg width="82" height="81" viewBox="0 0 82 81" fill="none" xmlns="http://www.w3.org/2000/svg">
<circle cx="41" cy="40.5" r="40.5" fill="#FF6666"/>
<path d="M23.7492 57.562C24.7805 53.2808 27.0304 44.2805 40.4376 44.2808C55.9055 44.2811 57.3742 53.9373 58.2805 57.8745C59.0686 62.9938 56.5667 64.2347 53.1555 63.0308C51.0305 62.2808 47.0067 60.1907 40.4376 60.187C33.8802 60.1833 31.8673 62.3177 28.4992 63.0308C25.1311 63.7438 23.0305 62.3745 23.7492 57.562Z" fill="#462A05"/>
<path d="M26.7803 50.1875C29.5928 46.5312 33.374 44.2811 40.4383 44.2813C51.124 44.2814 53.7803 48.4688 55.374 50.1875C55.374 50.1875 50.1865 48.4688 40.4383 48.4688C32.4053 48.4688 26.7803 50.1875 26.7803 50.1875Z" fill="white"/>
<path d="M22.7495 23.4375C25.6974 23.0312 31.9558 21.2687 33.4058 17.4688" stroke="#462A05" stroke-width="2.5" stroke-linecap="round"/>
<path d="M59.2183 23.4062C56.2703 23 50.012 21.2375 48.562 17.4375" stroke="#462A05" stroke-width="2.5" stroke-linecap="round"/>
<path d="M21.5308 29.8125C21.5308 29.8125 26.4323 30.7707 29.3745 31.9688C33.2822 33.5599 35.9298 35.4748 36.5063 35.9094C36.5507 35.9428 36.5331 36.0112 36.478 36.0182C35.6779 36.1202 31.7853 36.6471 29.3745 37.5312C26.4486 38.6043 22.562 41.4062 22.562 41.4062" stroke="#462A05" stroke-width="4" stroke-linecap="round"/>
<path d="M61.4058 29.8125C61.4058 29.8125 56.5042 30.7707 53.562 31.9688C49.6543 33.5599 47.0068 35.4748 46.4303 35.9094C46.3859 35.9428 46.4034 36.0112 46.4586 36.0182C47.2586 36.1202 51.1513 36.6471 53.562 37.5312C56.4879 38.6043 60.3745 41.4062 60.3745 41.4062" stroke="#462A05" stroke-width="6" stroke-linecap="round"/>
</svg>
