<svg width="81" height="82" viewBox="0 0 81 82" fill="none" xmlns="http://www.w3.org/2000/svg">
<circle cx="40.5" cy="41.25" r="40.5" fill="#FF9AE6"/>
<path fill-rule="evenodd" clip-rule="evenodd" d="M29.8271 23.5436C30.4934 23.7242 30.8871 24.4108 30.7065 25.0771C29.9843 27.7413 27.5287 29.3419 25.1981 30.282C22.8083 31.246 20.1698 31.674 18.4513 31.779C17.7622 31.8211 17.1695 31.2966 17.1274 30.6075C17.0853 29.9185 17.6097 29.3257 18.2988 29.2836C19.8198 29.1907 22.1813 28.8031 24.2629 27.9635C26.4037 27.0999 27.8908 25.9089 28.2936 24.423C28.4742 23.7567 29.1608 23.363 29.8271 23.5436ZM51.2355 23.5436C50.5692 23.7242 50.1755 24.4108 50.3561 25.0771C51.0783 27.7413 53.5339 29.3419 55.8645 30.282C58.2543 31.246 60.8928 31.674 62.6113 31.779C63.3004 31.8211 63.8931 31.2966 63.9352 30.6075C63.9773 29.9185 63.4529 29.3257 62.7638 29.2836C61.2428 29.1907 58.8813 28.8031 56.7997 27.9635C54.6589 27.0999 53.1718 25.9089 52.769 24.423C52.5884 23.7567 51.9018 23.363 51.2355 23.5436ZM25.2905 35.3613C24.489 34.8212 23.4014 35.0331 22.8613 35.8346C22.3212 36.6362 22.5331 37.7237 23.3346 38.2638L31.0202 43.4428C29.6485 43.6604 28.2554 43.921 26.9443 44.2015C25.5137 44.5077 24.1579 44.8424 23.0145 45.1788C21.909 45.5041 20.8815 45.8649 20.1853 46.2494C19.3392 46.7166 19.0321 47.7813 19.4994 48.6273C19.9666 49.4734 21.0312 49.7805 21.8773 49.3133C22.2152 49.1267 22.927 48.8529 24.0024 48.5365C25.0399 48.2312 26.3067 47.9172 27.6766 47.6241C30.4253 47.0359 33.4975 46.5511 35.8506 46.383C37.6965 46.2511 38.055 43.9627 36.7326 43.0716L25.2905 35.3613ZM58.6701 35.8346C58.13 35.0331 57.0424 34.8212 56.2409 35.3613L44.7988 43.0716C43.4764 43.9627 43.8348 46.2511 45.6807 46.383C48.0338 46.5511 51.1061 47.0359 53.8547 47.6241C55.2246 47.9172 56.4914 48.2312 57.5289 48.5365C58.6043 48.8529 59.3162 49.1267 59.6541 49.3133C60.5001 49.7805 61.5648 49.4734 62.032 48.6273C62.4992 47.7813 62.1921 46.7166 61.346 46.2494C60.6498 45.8649 59.6223 45.5041 58.5168 45.1788C57.3734 44.8424 56.0177 44.5077 54.5871 44.2015C53.276 43.921 51.8829 43.6604 50.5111 43.4428L58.1967 38.2638C58.9982 37.7237 59.2102 36.6362 58.6701 35.8346ZM30.3959 62.6806C31.0793 61.7769 32.4444 60.3431 34.2111 59.1493C35.9843 57.9511 38.0129 57.0938 40.0625 57.0938C42.1172 57.0938 44.1922 57.9547 46.0255 59.1612C47.8494 60.3614 49.2799 61.803 50.0059 62.715C50.6078 63.4711 51.7088 63.5962 52.4649 62.9943C53.2211 62.3923 53.3461 61.2914 52.7442 60.5352C51.8035 59.3534 50.1028 57.6544 47.9495 56.2374C45.8058 54.8267 43.0579 53.5938 40.0625 53.5938C37.0621 53.5938 34.3512 54.8304 32.2515 56.2493C30.1452 57.6727 28.5041 59.3795 27.6042 60.5695C27.0213 61.3404 27.1736 62.4379 27.9445 63.0209C28.7154 63.6039 29.8129 63.4515 30.3959 62.6806Z" fill="#800060"/>
</svg>
