<svg width="82" height="82" viewBox="0 0 82 82" fill="none" xmlns="http://www.w3.org/2000/svg">
<g filter="url(#filter0_ii_218_10775)">
<circle cx="41" cy="41.25" r="40.5" fill="#FF9AE6"/>
</g>
<path fill-rule="evenodd" clip-rule="evenodd" d="M30.3271 23.5436C30.9934 23.7242 31.3871 24.4108 31.2065 25.0771C30.4843 27.7413 28.0287 29.3419 25.6981 30.282C23.3083 31.246 20.6698 31.674 18.9513 31.779C18.2622 31.8211 17.6695 31.2966 17.6274 30.6075C17.5853 29.9185 18.1097 29.3257 18.7988 29.2836C20.3198 29.1907 22.6813 28.8031 24.7629 27.9635C26.9037 27.0999 28.3908 25.9089 28.7936 24.423C28.9742 23.7567 29.6608 23.363 30.3271 23.5436ZM51.7355 23.5436C51.0692 23.7242 50.6755 24.4108 50.8561 25.0771C51.5783 27.7413 54.0339 29.3419 56.3645 30.282C58.7543 31.246 61.3928 31.674 63.1113 31.779C63.8004 31.8211 64.3931 31.2966 64.4352 30.6075C64.4773 29.9185 63.9528 29.3257 63.2638 29.2836C61.7428 29.1907 59.3813 28.8031 57.2997 27.9635C55.1589 27.0999 53.6718 25.9089 53.269 24.423C53.0884 23.7567 52.4018 23.363 51.7355 23.5436ZM25.7905 35.3613C24.989 34.8212 23.9014 35.0331 23.3613 35.8346C22.8212 36.6361 23.0331 37.7237 23.8346 38.2638L31.5202 43.4428C30.1485 43.6603 28.7554 43.921 27.4443 44.2015C26.0137 44.5077 24.6579 44.8424 23.5145 45.1788C22.409 45.504 21.3815 45.8649 20.6853 46.2494C19.8392 46.7166 19.5321 47.7812 19.9994 48.6273C20.4666 49.4734 21.5312 49.7805 22.3773 49.3132C22.7152 49.1266 23.427 48.8529 24.5024 48.5365C25.5399 48.2312 26.8067 47.9172 28.1766 47.6241C30.9253 47.0359 33.9975 46.5511 36.3506 46.383C38.1965 46.2511 38.555 43.9627 37.2326 43.0716L25.7905 35.3613ZM59.1701 35.8346C58.63 35.0331 57.5424 34.8212 56.7409 35.3613L45.2988 43.0716C43.9764 43.9627 44.3348 46.2511 46.1807 46.383C48.5338 46.5511 51.6061 47.0359 54.3547 47.6241C55.7246 47.9172 56.9914 48.2312 58.0289 48.5365C59.1043 48.8529 59.8162 49.1266 60.1541 49.3132C61.0001 49.7805 62.0647 49.4734 62.532 48.6273C62.9992 47.7812 62.6921 46.7166 61.846 46.2494C61.1498 45.8649 60.1223 45.504 59.0168 45.1788C57.8734 44.8424 56.5177 44.5077 55.0871 44.2015C53.776 43.921 52.3828 43.6603 51.0111 43.4428L58.6967 38.2638C59.4982 37.7237 59.7102 36.6361 59.1701 35.8346ZM30.8959 62.6806C31.5793 61.7769 32.9445 60.3431 34.7111 59.1493C36.4843 57.951 38.5129 57.0938 40.5625 57.0938C42.6172 57.0938 44.6922 57.9547 46.5255 59.1612C48.3494 60.3614 49.7799 61.803 50.5059 62.715C51.1078 63.4711 52.2088 63.5962 52.9649 62.9942C53.7211 62.3923 53.8461 61.2914 53.2442 60.5352C52.3035 59.3534 50.6028 57.6544 48.4495 56.2374C46.3058 54.8267 43.5579 53.5938 40.5625 53.5938C37.5621 53.5938 34.8512 54.8303 32.7515 56.2493C30.6452 57.6726 29.0041 59.3795 28.1042 60.5695C27.5213 61.3404 27.6736 62.4379 28.4445 63.0209C29.2154 63.6039 30.3129 63.4515 30.8959 62.6806Z" fill="#800060"/>
<defs>
<filter id="filter0_ii_218_10775" x="-5.5" y="-5.25" width="93" height="93" filterUnits="userSpaceOnUse" color-interpolation-filters="sRGB">
<feFlood flood-opacity="0" result="BackgroundImageFix"/>
<feBlend mode="normal" in="SourceGraphic" in2="BackgroundImageFix" result="shape"/>
<feColorMatrix in="SourceAlpha" type="matrix" values="0 0 0 0 0 0 0 0 0 0 0 0 0 0 0 0 0 0 127 0" result="hardAlpha"/>
<feOffset dx="-6" dy="-6"/>
<feGaussianBlur stdDeviation="6"/>
<feComposite in2="hardAlpha" operator="arithmetic" k2="-1" k3="1"/>
<feColorMatrix type="matrix" values="0 0 0 0 1 0 0 0 0 0.390202 0 0 0 0 0.84906 0 0 0 1 0"/>
<feBlend mode="normal" in2="shape" result="effect1_innerShadow_218_10775"/>
<feColorMatrix in="SourceAlpha" type="matrix" values="0 0 0 0 0 0 0 0 0 0 0 0 0 0 0 0 0 0 127 0" result="hardAlpha"/>
<feOffset dx="6" dy="6"/>
<feGaussianBlur stdDeviation="6"/>
<feComposite in2="hardAlpha" operator="arithmetic" k2="-1" k3="1"/>
<feColorMatrix type="matrix" values="0 0 0 0 1 0 0 0 0 0.762891 0 0 0 0 0.941309 0 0 0 1 0"/>
<feBlend mode="normal" in2="effect1_innerShadow_218_10775" result="effect2_innerShadow_218_10775"/>
</filter>
</defs>
</svg>
