<svg width="24" height="43" viewBox="0 0 24 43" fill="none" xmlns="http://www.w3.org/2000/svg">
<path fill-rule="evenodd" clip-rule="evenodd" d="M9.9999 2C9.9999 0.89543 10.8953 0 11.9999 0C13.1045 0 13.9999 0.895431 13.9999 2V22C13.9999 23.1046 13.1045 24 11.9999 24C10.8953 24 9.9999 23.1046 9.9999 22V2ZM2 8C2 6.89543 2.89543 6 4 6C5.10457 6 6 6.89543 6 8V22C6 23.1046 5.10457 24 4 24C2.89543 24 2 23.1046 2 22V8ZM19.9999 12C18.8953 12 17.9999 12.8954 17.9999 14V22C17.9999 23.1046 18.8953 24 19.9999 24C21.1045 24 21.9999 23.1046 21.9999 22V14C21.9999 12.8954 21.1045 12 19.9999 12Z" fill="#333333"/>
<path d="M1.929 35.04H11.147V36.184H1.929V35.04ZM5.801 33.951H7.264V35.458H5.801V33.951ZM3.073 33.313H10.168V34.424H3.073V33.313ZM3.073 30.046H10.091V31.157H4.525V33.94H3.073V30.046ZM4.118 31.696H9.86V32.763H4.118V31.696ZM6.527 36.635C8.76 36.635 10.058 37.229 10.058 38.307C10.058 39.396 8.76 39.979 6.527 39.979C4.283 39.979 2.985 39.396 2.985 38.307C2.985 37.229 4.283 36.635 6.527 36.635ZM6.527 37.713C5.108 37.713 4.459 37.889 4.459 38.307C4.459 38.736 5.108 38.912 6.527 38.912C7.935 38.912 8.584 38.736 8.584 38.307C8.584 37.889 7.935 37.713 6.527 37.713ZM15.9861 32.477H18.0541V33.643H15.9861V32.477ZM15.9311 35.018H18.0101V36.184H15.9311V35.018ZM19.4401 29.793H20.8371V39.979H19.4401V29.793ZM17.3391 30.013H18.7031V39.528H17.3391V30.013ZM15.0401 30.992H16.4481C16.4481 33.885 15.5791 36.195 12.7411 37.867L11.9161 36.844C14.2151 35.447 15.0401 33.753 15.0401 31.289V30.992ZM12.4991 30.992H15.5351V32.158H12.4991V30.992Z" fill="#333333"/>
</svg>
