<svg width="31" height="43" viewBox="0 0 31 43" fill="none" xmlns="http://www.w3.org/2000/svg">
<path d="M6.5 2C6.5 0.89543 7.39543 0 8.5 0H22.5C23.6046 0 24.5 0.895431 24.5 2V19.8388C24.5 21.5158 22.5601 22.4481 21.2506 21.4005L16.7494 17.7995C16.019 17.2152 14.981 17.2152 14.2506 17.7995L9.74939 21.4005C8.43986 22.4481 6.5 21.5158 6.5 19.8388V2Z" fill="#333333"/>
<path d="M4.301 35.524H5.753V37.064H4.301V35.524ZM0.44 34.644H9.647V35.799H0.44V34.644ZM1.463 36.657H8.536V39.979H7.073V37.812H1.463V36.657ZM1.617 30.046H3.058V30.948H7.029V30.046H8.481V33.984H1.617V30.046ZM3.058 32.037V32.84H7.029V32.037H3.058ZM10.8671 30.75H15.7401V37.504H10.8671V30.75ZM14.2991 31.894H12.3081V36.349H14.2991V31.894ZM17.0711 29.793H18.5451V39.979H17.0711V29.793ZM18.2151 33.632H20.0191V34.842H18.2151V33.632ZM21.7233 30.684H28.1363V31.85H21.7233V30.684ZM20.6893 37.581H29.8963V38.78H20.6893V37.581ZM27.5203 30.684H28.9613V31.861C28.9613 33.346 28.9613 34.754 28.4883 36.976L27.0473 36.844C27.5203 34.787 27.5203 33.302 27.5203 31.861V30.684ZM27.8283 33.478V34.556L21.6023 34.864L21.4263 33.687L27.8283 33.478Z" fill="#333333"/>
</svg>
