<svg width="24" height="43" viewBox="0 0 24 43" fill="none" xmlns="http://www.w3.org/2000/svg">
<path d="M0 10.5612C0 9.95368 0.276179 9.37906 0.75061 8.99951L10.7506 0.999513C11.481 0.415163 12.519 0.415162 13.2494 0.999512L23.2494 8.99951C23.7238 9.37906 24 9.95368 24 10.5612V22C24 23.1046 23.1046 24 22 24H17.6C16.4954 24 15.6 23.1046 15.6 22V16.4C15.6 15.2954 14.7046 14.4 13.6 14.4H10.4C9.29543 14.4 8.4 15.2954 8.4 16.4V22C8.4 23.1046 7.50457 24 6.4 24H2C0.895432 24 0 23.1046 0 22V10.5612Z" fill="#333333"/>
<path d="M8.007 36.888H15.047V39.869H8.007V36.888ZM13.617 37.977H9.448V38.791H13.617V37.977ZM7.38 30.508H15.674V31.608H7.38V30.508ZM11.549 31.861C13.738 31.861 14.959 32.356 14.959 33.313C14.959 34.27 13.738 34.765 11.549 34.765C9.36 34.765 8.139 34.27 8.139 33.313C8.139 32.356 9.36 31.861 11.549 31.861ZM11.549 32.84C10.284 32.84 9.701 32.972 9.701 33.313C9.701 33.643 10.284 33.786 11.549 33.786C12.814 33.786 13.386 33.643 13.386 33.313C13.386 32.972 12.814 32.84 11.549 32.84ZM10.812 29.716H12.275V31.289H10.812V29.716ZM6.94 35.249H16.147V36.371H6.94V35.249ZM10.812 34.413H12.275V35.843H10.812V34.413Z" fill="#333333"/>
</svg>
