<svg width="24" height="43" viewBox="0 0 24 43" fill="none" xmlns="http://www.w3.org/2000/svg">
<path fill-rule="evenodd" clip-rule="evenodd" d="M17.0036 14.2425C18.8305 12.7763 20 10.5247 20 8C20 3.58172 16.4183 0 12 0C7.58172 0 4 3.58172 4 8C4 10.5247 5.16953 12.7763 6.99638 14.2425C2.98531 15.1883 0 18.791 0 23.0909C0 23.593 0.407013 24 0.90909 24H23.0909C23.593 24 24 23.593 24 23.0909C24 18.791 21.0147 15.1883 17.0036 14.2425Z" fill="#333333"/>
<path d="M7.537 39L5.898 32.84H5.854C5.86133 32.9867 5.87233 33.2067 5.887 33.5C5.90167 33.7933 5.91633 34.1087 5.931 34.446C5.94567 34.776 5.953 35.0767 5.953 35.348V39H4.369V31.146H6.767L8.406 37.152H8.439L10.122 31.146H12.52V39H10.87V35.282C10.87 35.0327 10.8737 34.7467 10.881 34.424C10.8883 34.1013 10.8993 33.797 10.914 33.511C10.9287 33.2177 10.9397 32.9977 10.947 32.851H10.903L9.209 39H7.537ZM16.7266 34.38L18.1346 31.146H20.0486L17.6066 35.942V39H15.8356V35.997L13.3936 31.146H15.3296L16.7266 34.38Z" fill="#333333"/>
</svg>
