<svg width="64" height="64" viewBox="0 0 64 64" fill="none" xmlns="http://www.w3.org/2000/svg">
<g filter="url(#filter0_ii_115_3698)">
<circle cx="32" cy="32" r="32" fill="url(#paint0_linear_115_3698)"/>
<path fill-rule="evenodd" clip-rule="evenodd" d="M32.0002 18.6667C30.5275 18.6667 29.3335 19.8607 29.3335 21.3334V29.3334H21.3332C19.8604 29.3334 18.6665 30.5273 18.6665 32.0001C18.6665 33.4728 19.8604 34.6667 21.3332 34.6667H29.3335V42.6668C29.3335 44.1395 30.5275 45.3334 32.0002 45.3334C33.473 45.3334 34.6669 44.1395 34.6669 42.6668V34.6667H42.6665C44.1393 34.6667 45.3332 33.4728 45.3332 32.0001C45.3332 30.5273 44.1393 29.3334 42.6665 29.3334H34.6669V21.3334C34.6669 19.8607 33.473 18.6667 32.0002 18.6667Z" fill="white"/>
</g>
<defs>
<filter id="filter0_ii_115_3698" x="-6" y="-4" width="76" height="72" filterUnits="userSpaceOnUse" color-interpolation-filters="sRGB">
<feFlood flood-opacity="0" result="BackgroundImageFix"/>
<feBlend mode="normal" in="SourceGraphic" in2="BackgroundImageFix" result="shape"/>
<feColorMatrix in="SourceAlpha" type="matrix" values="0 0 0 0 0 0 0 0 0 0 0 0 0 0 0 0 0 0 127 0" result="hardAlpha"/>
<feOffset dx="-6" dy="-4"/>
<feGaussianBlur stdDeviation="4"/>
<feComposite in2="hardAlpha" operator="arithmetic" k2="-1" k3="1"/>
<feColorMatrix type="matrix" values="0 0 0 0 0.497933 0 0 0 0 0.497933 0 0 0 0 0.497933 0 0 0 0.25 0"/>
<feBlend mode="normal" in2="shape" result="effect1_innerShadow_115_3698"/>
<feColorMatrix in="SourceAlpha" type="matrix" values="0 0 0 0 0 0 0 0 0 0 0 0 0 0 0 0 0 0 127 0" result="hardAlpha"/>
<feOffset dx="6" dy="4"/>
<feGaussianBlur stdDeviation="4"/>
<feComposite in2="hardAlpha" operator="arithmetic" k2="-1" k3="1"/>
<feColorMatrix type="matrix" values="0 0 0 0 0.983832 0 0 0 0 0.96135 0 0 0 0 0.96135 0 0 0 0.25 0"/>
<feBlend mode="normal" in2="effect1_innerShadow_115_3698" result="effect2_innerShadow_115_3698"/>
</filter>
<linearGradient id="paint0_linear_115_3698" x1="12" y1="7" x2="49" y2="59" gradientUnits="userSpaceOnUse">
<stop stop-color="#FA9195"/>
<stop offset="1" stop-color="#8B6BE3"/>
</linearGradient>
</defs>
</svg>
