<svg width="20" height="20" viewBox="0 0 20 20" fill="none" xmlns="http://www.w3.org/2000/svg">
<path fill-rule="evenodd" clip-rule="evenodd" d="M9.99984 18.3333C14.6022 18.3333 18.3332 14.6024 18.3332 9.99999C18.3332 5.39762 14.6022 1.66666 9.99984 1.66666C5.39746 1.66666 1.6665 5.39762 1.6665 9.99999C1.6665 14.6024 5.39746 18.3333 9.99984 18.3333ZM8.87764 10.5646C8.79887 10.7678 8.75949 11.0087 8.75949 11.2873C8.75949 11.4681 8.9061 11.6147 9.08695 11.6147H10.0189C10.1436 11.6147 10.2447 11.5136 10.2447 11.3889C10.2447 11.1856 10.2729 11.0163 10.3291 10.8808C10.3966 10.7377 10.5204 10.5947 10.7004 10.4517C10.8804 10.3086 11.1392 10.1355 11.4768 9.93225C11.8594 9.70641 12.1857 9.49563 12.4557 9.29991C12.737 9.10419 12.9508 8.88964 13.097 8.65628C13.2546 8.42291 13.3333 8.14438 13.3333 7.82069C13.3333 7.21846 13.0464 6.73668 12.4726 6.37534C11.8987 6.014 11.0886 5.83333 10.0422 5.83333C9.36709 5.83333 8.74824 5.88979 8.18565 6.00271C7.89399 6.06244 7.61493 6.1306 7.34846 6.20719C7.00154 6.3069 6.87694 6.72038 7.08952 7.01211C7.22966 7.20445 7.47791 7.28264 7.70587 7.21435C7.98394 7.13106 8.26201 7.0584 8.54008 6.99639C8.9564 6.89852 9.4121 6.84959 9.90717 6.84959C10.436 6.84959 10.8467 6.93616 11.1392 7.1093C11.443 7.28244 11.5949 7.53086 11.5949 7.85456C11.5949 8.06534 11.5499 8.24601 11.4599 8.39657C11.3812 8.5396 11.2349 8.69015 11.0211 8.84824C10.8073 8.9988 10.5035 9.18699 10.1097 9.41283C9.7609 9.60855 9.48523 9.80051 9.2827 9.98871C9.09142 10.1694 8.9564 10.3613 8.87764 10.5646ZM8.74262 12.7213C8.51758 12.8418 8.40506 13.0488 8.40506 13.3424C8.40506 13.636 8.51758 13.8467 8.74262 13.9747C8.96765 14.1027 9.24332 14.1667 9.56962 14.1667C9.87342 14.1667 10.1378 14.1027 10.3629 13.9747C10.5992 13.8467 10.7173 13.636 10.7173 13.3424C10.7173 13.0488 10.5992 12.8418 10.3629 12.7213C10.1378 12.6009 9.87342 12.5406 9.56962 12.5406C9.24332 12.5406 8.96765 12.6009 8.74262 12.7213Z" fill="#B3B3B3"/>
</svg>
