<svg width="12" height="12" viewBox="0 0 12 12" fill="none" xmlns="http://www.w3.org/2000/svg">
<path fill-rule="evenodd" clip-rule="evenodd" d="M10.7196 0.219668C11.0125 -0.0732227 11.4873 -0.0732227 11.7802 0.219668C12.0731 0.512559 12.0731 0.987429 11.7802 1.28032L7.06061 5.99995L11.7802 10.7196C12.0731 11.0125 12.0731 11.4873 11.7802 11.7802C11.4873 12.0731 11.0125 12.0731 10.7196 11.7802L5.99995 7.0606L1.28032 11.7802C0.987429 12.0731 0.512559 12.0731 0.219669 11.7802C-0.0732229 11.4873 -0.0732229 11.0125 0.219669 10.7196L4.9393 5.99995L0.219668 1.28032C-0.0732226 0.987429 -0.0732226 0.512559 0.219668 0.219668C0.512559 -0.0732227 0.987429 -0.0732227 1.28032 0.219668L5.99995 4.9393L10.7196 0.219668Z" fill="#666666"/>
</svg>
